<svg viewBox="0 0 16 14" fill="none" xmlns="http://www.w3.org/2000/svg">
<path d="M13.1887 7.05259C13.0794 6.66192 12.956 6.24859 12.8187 5.80392C12.412 4.68273 12.1373 3.518 12 2.33325C12 2.15644 12.0703 1.98687 12.1953 1.86185C12.3203 1.73682 12.4899 1.66659 12.6667 1.66659C12.8435 1.66659 13.0131 1.73682 13.1381 1.86185C13.2631 1.98687 13.3334 2.15644 13.3334 2.33325C13.3334 2.51006 13.4036 2.67963 13.5286 2.80466C13.6537 2.92968 13.8232 2.99992 14 2.99992C14.1768 2.99992 14.3464 2.92968 14.4714 2.80466C14.5965 2.67963 14.6667 2.51006 14.6667 2.33325C14.6667 1.80282 14.456 1.29411 14.0809 0.919038C13.7058 0.543966 13.1971 0.333252 12.6667 0.333252C12.1363 0.333252 11.6276 0.543966 11.2525 0.919038C10.8774 1.29411 10.6667 1.80282 10.6667 2.33325C10.6832 2.84232 10.7545 3.34812 10.8794 3.84192L7.67937 6.33325L3.9807 3.66659H6.00004C6.17685 3.66659 6.34642 3.59635 6.47144 3.47132C6.59646 3.3463 6.6667 3.17673 6.6667 2.99992C6.6667 2.82311 6.59646 2.65354 6.47144 2.52851C6.34642 2.40349 6.17685 2.33325 6.00004 2.33325H3.9807C3.70375 2.33317 3.43386 2.42069 3.20966 2.58328C2.98545 2.74588 2.81842 2.97522 2.73246 3.2385C2.6465 3.50178 2.64602 3.7855 2.73108 4.04907C2.81614 4.31264 2.98239 4.54256 3.20604 4.70592L6.5867 7.18059L5.62804 7.92659C5.03256 7.36594 4.25024 7.04618 3.43255 7.02923C2.61485 7.01227 1.81995 7.29932 1.20175 7.8348C0.583542 8.37028 0.186015 9.11609 0.0861317 9.92784C-0.0137514 10.7396 0.191115 11.5595 0.661065 12.2289C1.13102 12.8983 1.83262 13.3695 2.63003 13.5512C3.42745 13.733 4.26395 13.6125 4.97757 13.2129C5.6912 12.8133 6.23118 12.1632 6.49298 11.3883C6.75477 10.6135 6.71975 9.76909 6.3947 9.01859L11.254 5.23925C11.348 5.55659 11.7387 6.82859 11.8247 7.12125C11.0278 7.32931 10.3364 7.82532 9.88392 8.51346C9.43145 9.20161 9.25009 10.033 9.37489 10.8471C9.49968 11.6611 9.92177 12.4001 10.5596 12.9211C11.1974 13.4421 12.0057 13.7082 12.8283 13.668C13.6509 13.6278 14.4294 13.2841 15.0134 12.7034C15.5973 12.1227 15.9454 11.3461 15.9902 10.5238C16.035 9.70141 15.7734 8.89164 15.256 8.2509C14.7386 7.61016 14.002 7.18394 13.1887 7.05459V7.05259ZM3.33337 12.3333C2.93781 12.3333 2.55113 12.216 2.22223 11.9962C1.89333 11.7764 1.63698 11.4641 1.48561 11.0986C1.33423 10.7332 1.29463 10.331 1.3718 9.94307C1.44897 9.55511 1.63945 9.19874 1.91916 8.91904C2.19886 8.63933 2.55523 8.44885 2.94319 8.37168C3.33115 8.29451 3.73328 8.33412 4.09874 8.48549C4.46419 8.63687 4.77654 8.89321 4.99631 9.22211C5.21607 9.55101 5.33337 9.93769 5.33337 10.3333C5.33337 10.8637 5.12265 11.3724 4.74758 11.7475C4.37251 12.1225 3.8638 12.3333 3.33337 12.3333ZM12.6667 12.3333C12.2711 12.3333 11.8845 12.216 11.5556 11.9962C11.2267 11.7764 10.9703 11.4641 10.8189 11.0986C10.6676 10.7332 10.628 10.331 10.7051 9.94307C10.7823 9.55511 10.9728 9.19874 11.2525 8.91904C11.5322 8.63933 11.8886 8.44885 12.2765 8.37168C12.6645 8.29451 13.0666 8.33412 13.4321 8.48549C13.7975 8.63687 14.1099 8.89321 14.3296 9.22211C14.5494 9.55101 14.6667 9.93769 14.6667 10.3333C14.6667 10.8637 14.456 11.3724 14.0809 11.7475C13.7058 12.1225 13.1971 12.3333 12.6667 12.3333Z" fill="#3922C5"/>
</svg>
